# xmcd
#
# Track frame offsets: 
#        150
#        30162
#        68415
#        92547
#        144447
#        172802
#        228995
#
# Disc length: 3294 seconds
#
# Revision: 8
# Processed by: cddbd v1.5.2PL0 Copyright (c) Steve Scherf et al.
# Submitted via: ExactAudioCopy v0.99pb5
#
DISCID=420cdc07
DTITLE=Polish National Radio Symphony Orchestram, Antoni Wit - Messiae
DTITLE=n -Turangalîla-Symphonie
DYEAR=1998
DGENRE=Classical
TTITLE0=Turangalîla-Symphonie - I Introduction
TTITLE1=Turangalîla-Symphonie - II Chant d'amour 1
TTITLE2=Turangalîla-Symphonie - III Turangalîla 1
TTITLE3=Turangalîla-Symphonie - IV Chant d'amour 2
TTITLE4=Turangalîla-Symphonie - V Joie du sang des étoiles
TTITLE5=Turangalîla-Symphonie - VI Jardin du sommeil
TTITLE6=Turangalîla-Symphonie - VII Turangalîla 2
EXTD=Naxos - #8554478-79 DDD\nKatowice Polish Radio Orchestra and Chorus
EXTD=with Thomas Bloch\n YEAR: 1998
EXTT0=
EXTT1=
EXTT2=
EXTT3=
EXTT4=
EXTT5=
EXTT6=
PLAYORDER=
